<svg xmlns="http://www.w3.org/2000/svg" class="summit-logo" width="190" height="95" viewBox="0 0 190 95">
  <path class="summit-logo-base" d="m 5,5 0,72 77,0 12.68,12.68 12.68,-12.68 77,0 0,-72 -179.5,0 z" style="fill:#cc0000;"  ></path>
  <path class="summit-logo-shade" d="M 184.513,5 5,76.97 l 77,0 12.68,12.68 12.68,-12.68 77,0 0,-71.97 z" style="fill:#aa0000;" ></path>
  <path class="summit-logo-text" d="m 160,43.84 0,19.33 -7,0 0,-19.33 -7.2,0 0,-6.15 21.4,0 0,6.15 -7.2,0 z m -25.6,-6.15 7.2,0 0,25.48 -7.2,0 0,-25.48 z m -11.4,25.48 0,-6.08 c 0,-1.26 0,-2.45 0.1,-3.58 0,-1.13 0,-2.19 0.1,-3.19 -0.2,0.49 -0.4,1.02 -0.7,1.6 -0.2,0.59 -0.5,1.17 -0.7,1.77 -0.3,0.59 -0.6,1.18 -0.8,1.75 -0.3,0.57 -0.6,1.08 -0.8,1.54 l -3.3,7.07 -3.4,-7.07 c -0.2,-0.46 -0.4,-0.97 -0.7,-1.54 -0.3,-0.57 -0.5,-1.16 -0.8,-1.75 -0.3,-0.6 -0.5,-1.18 -0.8,-1.77 -0.2,-0.58 -0.4,-1.11 -0.6,-1.6 0,1 0.1,2.06 0.1,3.19 0,1.13 0,2.32 0,3.58 l 0,6.08 -6.6,0 0,-25.48 6.5,0 3.1,6.81 c 0.4,0.82 0.8,1.62 1.1,2.38 0.3,0.77 0.6,1.48 0.9,2.15 0.3,0.67 0.5,1.27 0.8,1.8 0.2,0.54 0.3,0.98 0.4,1.35 0.2,-0.73 0.6,-1.75 1.2,-3.08 0.5,-1.32 1.2,-2.86 2,-4.6 l 3.1,-6.81 6.5,0 0,25.48 -6.7,0 z m -30.23,0 0,-6.08 c 0,-1.26 0,-2.45 0,-3.58 0,-1.13 0.1,-2.19 0.11,-3.19 -0.19,0.49 -0.41,1.02 -0.65,1.6 -0.25,0.59 -0.5,1.17 -0.77,1.77 -0.27,0.59 -0.53,1.18 -0.8,1.75 -0.27,0.57 -0.51,1.08 -0.73,1.54 l -3.35,7.07 -3.35,-7.07 c -0.19,-0.46 -0.43,-0.97 -0.7,-1.54 -0.26,-0.57 -0.53,-1.16 -0.8,-1.75 -0.26,-0.6 -0.52,-1.18 -0.76,-1.77 -0.24,-0.58 -0.46,-1.11 -0.66,-1.6 0,1 0.1,2.06 0.11,3.19 0,1.13 0,2.32 0,3.58 l 0,6.08 -6.63,0 0,-25.48 6.48,0 3.14,6.81 c 0.38,0.82 0.75,1.62 1.09,2.38 0.34,0.77 0.65,1.48 0.93,2.15 0.27,0.67 0.52,1.27 0.72,1.8 0.21,0.54 0.36,0.98 0.46,1.35 0.22,-0.73 0.6,-1.75 1.16,-3.08 0.56,-1.32 1.24,-2.86 2.04,-4.6 l 3.13,-6.81 6.41,0 0,25.48 -6.62,0 z M 68.44,57.46 c -0.57,1.43 -1.36,2.6 -2.37,3.51 -1,0.91 -2.19,1.57 -3.56,1.98 -1.37,0.42 -2.86,0.62 -4.46,0.62 -1.61,0 -3.09,-0.2 -4.45,-0.62 -1.36,-0.41 -2.53,-1.07 -3.51,-1.98 -0.98,-0.91 -1.75,-2.08 -2.31,-3.51 -0.56,-1.43 -0.84,-3.16 -0.84,-5.17 l 0,-14.6 7.21,0 0,14.6 c 0,1.58 0.32,2.81 0.97,3.71 0.64,0.9 1.65,1.35 3.04,1.35 1.38,0 2.38,-0.45 3,-1.35 0.62,-0.9 0.93,-2.13 0.93,-3.71 l 0,-14.6 7.21,0 0,14.6 c 0,2.01 -0.29,3.74 -0.86,5.17 m -25.6,1.64 c -0.52,1.04 -1.25,1.89 -2.18,2.54 -0.94,0.66 -2.05,1.15 -3.33,1.46 -1.29,0.32 -2.7,0.47 -4.23,0.47 -2.06,0 -4.03,-0.29 -5.91,-0.89 -1.89,-0.59 -3.49,-1.33 -4.83,-2.2 l 3.42,-5.54 c 0.46,0.32 1.01,0.63 1.62,0.93 0.62,0.31 1.27,0.58 1.93,0.82 0.67,0.25 1.35,0.44 2.03,0.59 0.67,0.14 1.31,0.21 1.89,0.21 1.26,0 2.13,-0.12 2.6,-0.36 0.47,-0.24 0.71,-0.67 0.71,-1.27 0,-0.25 -0.1,-0.47 -0.2,-0.66 C 36.23,55.01 36,54.82 35.67,54.64 35.34,54.45 34.9,54.27 34.34,54.09 33.78,53.91 33.08,53.72 32.23,53.52 30.7,53.16 29.36,52.77 28.22,52.36 27.08,51.95 26.14,51.43 25.38,50.81 24.63,50.19 24.07,49.45 23.69,48.57 23.31,47.7 23.13,46.62 23.13,45.33 c 0,-1.19 0.23,-2.28 0.71,-3.27 0.47,-1 1.14,-1.85 2.02,-2.55 0.87,-0.71 1.93,-1.25 3.16,-1.64 1.24,-0.39 2.63,-0.58 4.16,-0.58 2.18,0 4.08,0.25 5.69,0.76 1.62,0.51 3.1,1.24 4.46,2.19 l -3.42,5.53 c -1.14,-0.78 -2.28,-1.37 -3.42,-1.78 -1.14,-0.42 -2.37,-0.62 -3.68,-0.62 -1.07,0 -1.77,0.14 -2.11,0.43 -0.34,0.3 -0.51,0.67 -0.51,1.13 0,0.25 0.1,0.46 0.2,0.64 0.13,0.18 0.36,0.35 0.67,0.51 0.32,0.16 0.74,0.32 1.28,0.47 0.53,0.16 1.21,0.34 2.04,0.53 1.6,0.39 2.98,0.81 4.15,1.27 1.16,0.47 2.12,1.01 2.87,1.64 0.76,0.63 1.31,1.39 1.68,2.26 0.36,0.87 0.54,1.91 0.54,3.09 0,1.46 -0.26,2.71 -0.78,3.76 M 132.3,21 l 0,9.67 -3.6,0 0,-9.67 -3.5,0 0,-3.08 10.6,0 0,3.08 -3.5,0 z m -12.1,3.78 c -0.2,-0.41 -0.3,-0.77 -0.3,-1.07 -0.1,-0.3 -0.2,-0.58 -0.3,-0.82 0,-0.24 -0.1,-0.46 -0.1,-0.66 -0.1,-0.2 -0.1,-0.41 -0.2,-0.63 0,0.22 0,0.43 -0.1,0.64 0,0.2 -0.1,0.43 -0.2,0.67 0,0.24 -0.1,0.52 -0.2,0.82 -0.1,0.3 -0.2,0.65 -0.3,1.05 l -0.2,0.84 2.1,0 -0.2,-0.84 z m 1.7,5.88 -0.7,-2.23 -3.8,0 -0.7,2.23 -3.8,0 4.7,-12.74 3.5,0 4.7,12.74 -3.9,0 z m -14.5,0 0,-5.03 -4,0 0,5.03 -3.57,0 0,-12.75 3.57,0 0,4.64 4,0 0,-4.64 3.6,0 0,12.75 -3.6,0 z m -20.39,-7.9 c -0.1,-0.42 -0.27,-0.77 -0.5,-1.03 -0.23,-0.27 -0.54,-0.47 -0.91,-0.59 -0.38,-0.13 -0.84,-0.2 -1.39,-0.2 l -0.87,0 0,6.7 0.76,0 c 0.55,0 1.02,-0.1 1.41,-0.17 0.38,-0.11 0.7,-0.3 0.95,-0.56 0.25,-0.26 0.43,-0.61 0.54,-1.04 0.11,-0.43 0.16,-0.96 0.16,-1.59 0,-0.59 0,-1.09 -0.15,-1.52 m 3.34,4.49 c -0.29,0.82 -0.73,1.48 -1.31,1.99 -0.58,0.5 -1.3,0.86 -2.16,1.09 -0.85,0.22 -1.85,0.34 -2.98,0.34 l -4.13,0 0,-12.75 4.46,0 c 1,0 1.9,0.11 2.71,0.31 0.82,0.21 1.51,0.56 2.07,1.05 0.56,0.49 1,1.14 1.31,1.94 0.31,0.8 0.47,1.8 0.47,3 0,1.2 -0.15,2.21 -0.44,3.03 m -23,3.42 0,-12.75 9.76,0 0,2.97 -6.26,0 0,1.71 3.77,0 0,2.91 -3.77,0 0,2.19 6.39,0 0,2.97 -9.89,0 z M 60.94,21.18 C 60.7,20.93 60.3,20.8 59.74,20.8 l -2.14,0 0,2.78 2.09,0 c 0.58,0 1,-0.12 1.24,-0.36 0.25,-0.24 0.37,-0.6 0.37,-1.06 0,-0.4 -0.12,-0.72 -0.36,-0.98 m 0.17,9.48 -2.08,-4.29 -1.43,0 0,4.29 -3.46,0 0,-12.74 5.7,0 c 0.74,0 1.42,0.1 2.03,0.23 0.61,0.15 1.14,0.39 1.58,0.72 0.43,0.33 0.77,0.75 1.01,1.28 0.23,0.53 0.35,1.17 0.35,1.92 0,0.96 -0.21,1.74 -0.62,2.35 -0.41,0.61 -0.97,1.07 -1.68,1.38 l 2.56,4.86 -3.96,0 z"
  style="fill:#ffffff;" ></path>
</svg>