<svg xmlns="http://www.w3.org/2000/svg" class="triangle-element" viewbox="0 0 70.5 70.5" preserveaspectratio="xMaxYMax meet" style="top: 80%; position:absolute; bottom:0; right:0; left: 68%; top: 68%; height: 32%; width: 32%; user-select:none; z-index:1;">
  
    <path d="m 70.5,16 +0,55.5  -55.5,0 z" style="fill:#cc0000; stroke:none;"></path>
     
<g transform="translate(0,0)">
<path style="fill:none;stroke:#c00;stroke-width:0.2;stroke-linecap:square;" class="pattern" d="M34 52v-2h2m-3 3v-4h4m-5 5v-6h6m-10-6v2h-2m3-3v4h-4m5-5v6h-6m10-4h2v2h-2zm-1-1h4v4h-4zm-1-1h6v6h-6zm-4 10h-2v2h2zm-3-1h4v4h-4zm5 5v-6h-6v6zm12-10v-2h2m-3 3v-4h4m-5 5v-6h6m-10-6v2h-2m3-3v4h-4m5-5v6h-6m10-2v-2h2v2zm-1-3h4v4h-4zm5 5h-6v-6h6zM18 52h2v-2m-3 3h4v-4m-5 5h6v-6m38-22h-2v2m-8-8h2v-2m-3 3h4v-4m-5 5h6v-6m-4 10h2v2h-2zm-1-1h4v4h-4zm-1-1h6v6h-6zm10-4v-2h2v2zm-6 14h-2v2m3-3h-4v4m5-5h-6v6m-6-10h2v-2m-3 3h4v-4m-5 5h6v-6m14-14v2h-2m13 3H55v16H39v16H23v16H7v8M71 7h-8v16H47v16H31v16H15v16m13-13h-2v2m3-3h-4v4m5-5h-6v6m-6-4h2v2h-2zm-1-1h4v4h-4zm-1-1h6v6h-6zm4 10h-2v2m3-3h-4v4m5-5h-6v6m-6-10h2v-2m-3 3h4v-4m-5 5h6v-6m-2 10h-2v2h2zm-3-1h4v4H9zm-1-1h6v6H8zm53-39h-4v4m5-5h-6v6m1-13h4v4h-4zm-1-1h6v6h-6zm10 4v-2h2m-3 3v-4h4m-5 5v-6h6m-9-7v4h-4m5-5v6h-6m10-4h2v2h-2zm-1-1h4v4h-4zm-1-1h6v6h-6zm4-6v2h-2m3-3v4h-4m5-5v6h-6M4 66v2H2m3-3v4H1m5-5v6H0"></path>
</g>  
</svg>





